<?xml version="1.0" standalone="no"?>
<!DOCTYPE svg PUBLIC "-//W3C//DTD SVG 20010904//EN"
 "http://www.w3.org/TR/2001/REC-SVG-20010904/DTD/svg10.dtd">
<svg version="1.0" xmlns="http://www.w3.org/2000/svg"
 width="670.000000pt" height="670.000000pt" viewBox="0 0 670.000000 670.000000"
 preserveAspectRatio="xMidYMid meet">
<metadata>
Created by potrace 1.14, written by Peter Selinger 2001-2017
</metadata>
<g transform="translate(0.000000,670.000000) scale(0.100000,-0.100000)"
fill="#000000" stroke="none">
<path d="M3068 6664 c-4 -3 -67 -12 -133 -18 -22 -2 -51 -7 -65 -10 -14 -4
-41 -9 -60 -11 -70 -9 -115 -16 -130 -22 -8 -3 -28 -7 -45 -10 -16 -2 -70 -16
-120 -29 -49 -14 -94 -26 -100 -28 -8 -2 -88 -26 -105 -31 -3 -1 -12 -5 -20
-8 -8 -3 -53 -19 -100 -36 -136 -47 -160 -57 -172 -69 -7 -7 -17 -12 -23 -12
-5 0 -51 -20 -102 -46 -68 -34 -94 -53 -103 -73 -14 -36 -4 -80 26 -108 25
-23 39 -23 89 -2 17 7 32 13 35 13 3 1 31 14 64 29 32 15 64 27 71 27 7 0 18
7 25 15 7 8 19 15 26 15 8 0 22 4 32 9 34 19 225 86 305 107 4 1 8 2 10 4 1 1
9 3 17 5 9 1 51 12 95 25 44 12 94 23 110 25 17 2 41 6 55 10 14 3 41 8 60 11
19 3 43 8 53 11 11 3 40 7 65 9 26 2 84 8 130 15 45 6 93 8 107 5 28 -7 27 1
26 -206 0 -192 2 -179 -35 -213 -18 -18 -47 -42 -62 -54 -39 -29 -114 -103
-106 -103 4 0 0 -6 -8 -13 -14 -11 -24 -26 -54 -82 -6 -11 -13 -22 -17 -25 -7
-7 -50 -108 -61 -145 -34 -117 -29 -322 9 -425 4 -8 7 -20 7 -25 2 -19 68
-143 87 -164 11 -11 19 -24 19 -29 0 -4 32 -40 71 -78 97 -95 96 -94 103 -87
3 4 6 2 6 -4 0 -6 26 -23 58 -39 31 -16 60 -33 64 -39 4 -5 8 -6 8 -1 0 5 7 2
17 -5 9 -8 19 -13 22 -12 3 2 29 -3 56 -11 28 -8 70 -18 95 -21 54 -8 54 -8
60 -5 15 6 120 4 120 -3 0 -4 8 -3 18 2 9 5 44 15 77 21 33 7 71 17 85 23 14
6 27 11 30 12 23 6 100 51 100 57 0 4 6 8 14 8 12 0 147 115 154 133 2 4 10
13 17 21 37 37 145 236 128 236 -3 0 -1 6 4 13 34 42 49 242 26 345 -8 37 -15
72 -17 79 -1 7 -5 16 -9 19 -4 4 -7 15 -7 24 0 22 -45 110 -93 182 -39 58
-148 166 -198 195 -19 11 -31 30 -37 57 -10 41 -8 243 2 254 3 3 1 11 -5 18
-13 16 16 33 46 28 11 -2 35 -5 52 -6 18 -2 33 -6 33 -10 0 -5 3 -7 8 -6 12 2
86 -14 104 -23 9 -5 28 -10 42 -11 15 -1 26 -7 26 -12 0 -5 3 -7 6 -3 3 3 18
1 33 -5 14 -5 35 -12 45 -14 74 -15 302 -117 304 -136 6 -54 6 -121 -1 -125
-4 -2 -4 -9 0 -16 10 -16 10 -58 1 -63 -5 -3 -5 -10 -1 -17 9 -15 10 -57 1
-63 -4 -3 -4 -15 0 -27 9 -27 9 -48 -1 -64 -5 -7 -5 -13 0 -13 10 0 10 -91 -1
-108 -4 -7 -4 -12 1 -12 10 0 9 -162 0 -177 -4 -7 -4 -14 1 -17 9 -5 9 -47 -1
-63 -4 -7 -4 -14 1 -17 9 -5 9 -47 -1 -63 -4 -5 -4 -13 0 -17 3 -3 7 -23 9
-43 4 -69 74 -98 149 -63 17 8 78 45 138 83 120 77 125 78 210 26 26 -16 51
-29 56 -29 5 0 11 -3 13 -7 5 -13 160 -85 192 -90 36 -6 73 13 83 41 13 41 15
52 19 191 5 161 6 170 32 156 17 -9 132 -119 132 -127 0 -2 22 -26 49 -54 27
-28 68 -76 92 -107 24 -32 56 -71 72 -87 15 -16 27 -34 27 -40 0 -6 10 -23 23
-36 33 -38 61 -80 93 -139 16 -28 34 -60 39 -69 68 -114 82 -140 87 -160 4
-15 2 -25 -7 -28 -7 -3 -145 -7 -306 -9 -162 -1 -296 -4 -299 -5 -3 -1 -9 -1
-15 0 -26 6 -333 5 -357 -1 -15 -4 -30 -4 -32 0 -5 8 -981 9 -1006 1 -8 -3
-25 -16 -36 -28 l-21 -24 -1 -946 c0 -521 -1 -957 -1 -969 -1 -24 -13 -30 -90
-38 -103 -12 -110 -27 -109 -255 1 -227 11 -252 101 -255 30 -1 59 -5 65 -9 6
-3 13 -3 15 1 6 10 129 9 145 0 6 -4 13 -4 15 0 6 9 129 9 144 0 6 -4 13 -4
17 0 10 10 209 10 224 0 7 -5 12 -6 12 -1 0 11 91 11 108 0 7 -4 12 -4 12 1 0
10 91 10 108 -1 7 -4 12 -4 12 1 0 10 91 10 108 -1 7 -4 12 -4 12 1 0 10 91
10 108 -1 7 -4 12 -4 12 1 0 10 91 10 108 -1 7 -4 12 -4 12 1 0 10 91 10 108
-1 7 -4 12 -4 12 1 0 10 91 10 108 -1 7 -4 12 -4 12 1 0 10 91 10 108 -1 7 -4
12 -4 12 1 0 10 91 10 108 -1 7 -4 12 -4 12 1 0 9 93 9 108 -1 6 -3 13 -3 15
1 6 10 129 9 145 0 6 -4 13 -4 15 0 6 10 129 9 145 0 6 -4 13 -4 15 0 4 6 106
9 150 4 11 -1 8 -61 -4 -61 -5 0 -8 -4 -5 -8 4 -7 -41 -107 -126 -279 -17 -35
-35 -63 -40 -63 -4 0 -7 -3 -6 -7 3 -14 -45 -112 -53 -107 -4 2 -10 -9 -14
-26 -4 -16 -11 -30 -16 -30 -5 0 -9 -7 -9 -15 0 -8 -11 -25 -24 -38 -13 -13
-27 -33 -30 -45 -4 -12 -11 -22 -16 -22 -5 0 -12 -9 -15 -20 -3 -11 -13 -20
-21 -20 -8 0 -13 -4 -9 -9 3 -6 -1 -13 -9 -18 -8 -4 -29 -30 -48 -58 -32 -47
-60 -83 -100 -126 -10 -10 -18 -21 -18 -23 0 -3 -25 -29 -55 -59 -30 -30 -55
-53 -55 -51 0 1 -28 -27 -62 -63 -35 -36 -99 -95 -143 -131 -86 -70 -105 -86
-147 -126 -16 -14 -28 -22 -28 -19 0 3 -8 -1 -17 -10 -10 -8 -27 -17 -38 -19
-19 -3 -20 2 -18 67 1 39 6 108 10 155 12 130 8 261 -9 291 -17 33 -57 86 -80
107 -18 17 -16 27 19 96 52 100 58 159 28 276 -25 96 -71 178 -147 261 -53 57
-104 74 -158 52 -35 -15 -161 -119 -153 -127 3 -3 1 -6 -5 -6 -6 0 -27 -32
-47 -71 -28 -55 -37 -87 -40 -136 -4 -77 22 -180 65 -252 43 -73 45 -91 15
-126 -13 -16 -29 -35 -34 -41 -7 -9 -24 -50 -26 -64 0 -3 -3 -10 -7 -15 -4 -6
-4 -33 -2 -60 3 -28 6 -83 8 -123 2 -40 6 -75 9 -79 4 -3 2 -14 -4 -24 -5 -11
-6 -19 -2 -19 4 0 8 -15 9 -33 1 -39 11 -163 18 -232 16 -152 16 -182 -2 -203
-14 -16 -71 -46 -100 -53 -4 -1 -18 -6 -32 -12 -14 -6 -27 -11 -30 -12 -25 -8
-48 -18 -62 -26 -10 -5 -29 -9 -43 -9 -21 0 -25 5 -26 33 0 17 -1 385 -2 817
-2 714 -4 788 -19 811 -9 14 -22 27 -30 28 -7 1 -157 4 -333 6 -176 3 -364 6
-418 7 -91 3 -100 1 -116 -19 -17 -20 -18 -60 -19 -545 -1 -288 -1 -557 -1
-598 0 -41 0 -109 -1 -150 -1 -102 -8 -489 -9 -522 -1 -20 -8 -29 -30 -36 -16
-6 -32 -8 -35 -5 -3 3 -45 7 -93 9 -98 5 -171 10 -223 18 -19 3 -56 7 -81 11
-65 8 -105 15 -229 39 -32 7 -152 35 -165 39 -5 2 -23 7 -40 12 -16 4 -61 18
-100 32 -38 13 -74 25 -80 27 -14 3 -124 45 -160 61 -16 7 -70 30 -120 51 -49
21 -91 42 -93 46 -2 5 -8 8 -12 8 -5 0 -32 13 -60 30 -28 16 -57 30 -65 30 -8
0 -15 4 -15 8 0 5 -17 17 -37 28 -63 34 -86 48 -107 67 -11 9 -26 17 -33 17
-7 0 -13 3 -13 8 0 4 -18 18 -40 32 -22 14 -40 28 -40 32 0 5 -5 8 -10 8 -16
0 -91 55 -142 102 -16 16 -31 28 -33 28 -18 0 -299 280 -391 390 -114 137
-228 300 -218 310 5 4 70 11 144 14 74 3 158 8 185 11 47 4 62 7 140 20 30 5
96 17 105 20 12 3 81 16 87 17 5 0 19 5 33 10 42 17 90 18 96 3 5 -12 8 -127
5 -181 -1 -20 -32 -64 -44 -64 -13 0 -107 -102 -107 -116 0 -8 -4 -14 -10 -14
-5 0 -10 -8 -10 -18 0 -10 -5 -23 -12 -30 -7 -7 -12 -48 -14 -99 -2 -124 22
-196 92 -268 29 -30 57 -55 63 -55 6 0 11 -4 11 -10 0 -5 8 -10 18 -10 10 0
22 -3 26 -7 28 -28 236 -20 236 10 0 4 5 5 10 2 6 -4 42 25 80 63 63 63 72 76
69 98 0 4 4 10 10 13 21 13 32 152 19 237 -6 41 -53 122 -92 157 -38 36 -120
93 -125 88 -1 -2 -10 1 -20 8 -13 10 -16 32 -15 142 1 86 6 134 14 144 7 8 72
46 144 83 72 37 145 79 162 94 l31 28 1 452 1 453 33 27 c18 16 43 31 56 34
12 3 22 10 22 15 0 5 4 8 8 6 7 -2 146 61 182 83 49 30 160 88 160 84 0 -2 9
5 21 17 28 28 31 53 13 98 -13 32 -27 44 -89 76 -40 21 -71 43 -69 49 3 7 39
10 112 7 248 -9 272 -8 292 19 10 13 20 38 23 55 2 16 4 422 3 900 l-1 870
-21 23 c-34 36 -101 51 -211 48 -54 -2 -116 -9 -138 -14 -22 -6 -51 -13 -65
-15 -14 -3 -59 -15 -100 -27 -41 -12 -79 -23 -85 -24 -34 -7 -95 -30 -95 -36
0 -4 -6 -7 -12 -7 -7 0 -35 -10 -63 -23 -27 -13 -53 -22 -57 -22 -5 1 -8 -2
-8 -6 0 -4 -10 -8 -22 -9 -11 -1 -24 -6 -27 -11 -5 -7 -33 -22 -51 -27 -18 -4
-138 -70 -152 -83 -10 -8 -18 -11 -18 -7 0 4 -8 1 -17 -7 -10 -9 -34 -25 -54
-36 -69 -39 -83 -47 -97 -59 -7 -7 -17 -13 -22 -13 -5 0 -15 -6 -22 -13 -21
-21 -65 -29 -80 -15 -32 31 -157 128 -198 154 -25 16 -47 31 -50 34 -9 9 -173
88 -230 110 -105 42 -110 47 -85 76 6 7 21 27 35 45 14 18 39 48 55 67 17 18
41 45 54 60 13 15 43 48 67 74 24 26 44 51 44 57 0 6 7 11 15 11 8 0 15 7 15
17 0 9 2 14 5 11 7 -6 138 122 157 153 8 13 14 29 13 34 -4 32 -19 55 -47 68
-61 30 -103 2 -284 -186 -129 -135 -127 -133 -206 -233 -29 -38 -59 -75 -66
-84 -16 -18 -61 -79 -82 -110 -8 -12 -19 -28 -25 -34 -48 -56 -238 -411 -314
-586 -31 -72 -69 -169 -71 -178 0 -4 -12 -45 -26 -92 -15 -47 -27 -89 -29 -95
-1 -5 -5 -17 -8 -25 -3 -8 -15 -55 -27 -105 -11 -49 -23 -101 -27 -115 -5 -24
-8 -35 -17 -97 -3 -16 -5 -28 -6 -28 -1 0 -3 -9 -4 -20 -20 -150 -25 -199 -29
-285 -2 -31 -7 -61 -11 -68 -4 -7 -3 -12 2 -12 7 0 9 -43 2 -60 -5 -12 -2 -71
3 -76 3 -4 2 -17 -4 -31 -5 -13 -6 -22 -1 -20 9 7 8 -145 -2 -161 -4 -6 -3
-12 2 -12 4 0 8 -15 8 -32 0 -31 10 -131 18 -188 2 -14 7 -52 11 -85 4 -33 9
-69 12 -80 2 -11 6 -29 7 -40 5 -29 34 -154 46 -195 41 -147 66 -228 97 -312
19 -53 34 -100 33 -104 -1 -4 2 -10 7 -13 5 -3 26 -45 46 -92 34 -81 67 -151
105 -226 9 -18 20 -33 25 -33 4 0 5 -4 2 -10 -3 -5 -2 -10 4 -10 6 0 13 -11
17 -25 3 -14 11 -25 17 -25 6 0 8 -3 4 -6 -3 -3 1 -13 9 -22 8 -10 14 -21 13
-26 0 -5 3 -12 8 -15 5 -3 24 -29 42 -58 29 -46 70 -104 101 -140 5 -7 10 -16
10 -22 0 -5 4 -11 8 -13 4 -2 35 -39 69 -83 122 -161 358 -403 503 -515 54
-42 78 -61 94 -75 27 -25 117 -85 126 -85 6 0 10 -4 10 -8 0 -10 77 -62 91
-62 5 0 9 -4 9 -10 0 -5 6 -10 13 -10 8 0 22 -9 32 -20 10 -11 20 -18 23 -15
3 2 18 -5 33 -16 16 -11 29 -17 29 -12 0 4 4 4 8 -2 8 -12 89 -58 152 -87 25
-11 47 -24 50 -27 3 -3 14 -8 25 -9 11 -2 40 -14 65 -26 25 -13 56 -28 70 -34
14 -5 46 -19 72 -31 26 -12 52 -21 58 -21 6 0 18 -4 28 -10 31 -17 182 -63
244 -75 10 -2 22 -6 26 -9 8 -5 22 -8 90 -21 15 -3 43 -10 62 -15 19 -5 51
-11 70 -14 19 -3 46 -8 60 -10 207 -36 237 -38 575 -39 307 -1 366 3 535 34
30 6 70 12 87 15 18 2 61 11 95 19 35 9 72 18 83 20 44 10 63 15 130 33 39 11
83 25 98 31 16 6 33 9 38 5 5 -3 9 0 9 5 0 6 5 11 10 11 13 0 180 65 250 98
30 14 57 26 60 27 19 4 337 177 364 198 6 4 34 23 61 41 83 54 186 126 199
139 7 6 39 35 71 62 32 28 133 125 224 216 91 91 173 170 181 175 22 13 106
115 172 208 32 45 63 88 70 95 17 19 122 186 146 231 51 97 95 176 103 186 5
6 6 14 2 17 -3 4 -2 7 4 7 5 0 16 18 23 40 7 22 18 40 23 40 6 0 8 3 5 6 -4 3
10 40 29 82 19 42 36 84 38 92 2 8 17 55 34 104 16 50 28 94 25 98 -3 4 -1 8
4 8 5 0 13 15 17 33 4 17 9 37 10 42 3 9 61 244 71 290 3 11 7 38 9 60 3 22 8
56 11 75 4 19 8 54 8 77 1 24 3 43 6 43 3 0 6 15 6 33 1 17 5 86 8 152 9 142
8 104 2 305 -2 91 -7 176 -10 190 -3 13 -8 54 -12 90 -12 134 -18 173 -46 285
-11 44 -22 88 -24 99 -13 67 -59 228 -75 265 -11 24 -17 46 -14 49 2 3 -2 17
-10 31 -19 35 -55 121 -55 132 0 5 -30 71 -67 146 -36 76 -67 141 -67 145 -1
4 -7 13 -13 20 -7 6 -13 15 -13 19 0 15 -166 279 -182 290 -6 3 -8 9 -6 12 1
3 -10 22 -27 43 -16 21 -66 84 -109 139 -92 116 -397 423 -506 510 -41 32 -76
63 -78 67 -2 4 -10 8 -17 8 -7 0 -15 3 -17 8 -1 4 -32 27 -68 51 -36 25 -67
47 -70 50 -9 10 -64 42 -82 48 -10 3 -18 9 -18 14 0 5 -5 9 -11 9 -6 0 -30 14
-55 30 -24 17 -44 27 -44 23 0 -4 -4 -3 -8 3 -17 26 -463 233 -536 249 -6 1
-18 5 -26 8 -46 18 -364 101 -430 112 -19 3 -42 8 -50 10 -19 5 -83 15 -140
21 -25 3 -61 8 -80 11 -37 5 -637 13 -642 7z m494 -179 c125 -9 162 -15 177
-29 10 -11 13 -44 13 -130 -1 -151 -2 -154 -55 -149 -108 9 -194 10 -209 1
-11 -5 -18 -5 -18 1 0 6 -11 6 -29 1 -20 -6 -35 -4 -47 5 -15 11 -17 30 -17
149 0 76 4 141 9 146 9 8 82 18 96 13 3 -2 39 -5 80 -8z m1310 -382 c2 -5 33
-24 71 -43 37 -19 67 -38 67 -42 0 -5 5 -8 11 -8 9 0 106 -62 194 -124 56 -40
105 -94 106 -118 3 -73 0 -148 -6 -157 -3 -6 -3 -11 2 -11 7 0 8 -17 4 -107
-1 -33 -27 -29 -110 16 -128 71 -175 75 -257 24 -85 -53 -113 -67 -120 -60 -9
8 -9 611 0 626 8 12 33 15 38 4z m-1197 -105 c199 -35 389 -210 435 -399 6
-24 13 -53 16 -64 6 -24 6 -169 -1 -187 -2 -7 -7 -26 -9 -41 -11 -67 -86 -195
-154 -266 -38 -39 -76 -71 -85 -71 -8 0 -17 -4 -19 -8 -4 -11 -124 -59 -168
-68 -128 -24 -196 -19 -315 23 -89 33 -134 61 -204 132 -153 151 -203 367
-135 575 15 47 31 86 36 86 4 0 8 7 8 15 0 9 6 23 13 31 34 42 117 124 153
152 52 40 180 89 253 98 31 3 57 7 59 9 3 3 35 -2 117 -17z m-1067 -862 c16
-6 22 -15 23 -39 5 -250 -1 -1491 -8 -1498 -5 -5 -85 -10 -178 -13 -94 -2
-170 -5 -170 -6 0 -1 -18 -3 -40 -5 -22 -2 -60 -8 -85 -13 -49 -9 -98 0 -138
26 -14 9 -31 17 -39 18 -8 2 -22 9 -31 17 -10 8 -70 41 -134 73 -65 32 -118
63 -118 68 0 4 7 6 14 3 8 -3 88 30 177 74 89 43 168 79 176 79 7 0 13 4 13 8
0 5 6 9 13 9 6 0 47 12 91 27 43 14 86 26 95 26 9 0 21 4 27 9 5 5 23 12 39
15 47 8 95 24 120 40 17 11 22 23 20 48 -2 18 -3 41 -4 50 0 10 -11 24 -24 33
-25 16 -117 29 -117 16 0 -4 -6 -8 -12 -9 -23 -1 -73 -13 -108 -24 -19 -7 -41
-13 -47 -14 -12 -2 -85 -27 -128 -44 -98 -38 -162 -64 -170 -71 -5 -4 -49 -28
-98 -53 -94 -50 -118 -69 -140 -113 -17 -35 -12 -63 16 -86 22 -17 22 -17 -8
-5 -16 6 -44 22 -61 34 -17 13 -34 21 -36 19 -3 -3 -13 4 -23 15 -17 19 -19
46 -20 383 -1 199 -3 367 -4 372 -9 27 2 65 24 89 13 14 26 26 29 26 2 0 31
17 63 38 32 21 85 54 118 72 33 18 80 44 105 58 77 42 234 118 252 122 4 0 32
12 63 25 60 27 193 71 240 80 17 3 53 11 82 18 55 13 105 14 141 3z m-1813
-107 c17 -7 32 -13 35 -14 3 -1 12 -5 20 -8 25 -11 75 -30 80 -32 12 -3 156
-78 160 -84 3 -3 14 -12 25 -19 57 -36 79 -53 129 -100 30 -28 58 -62 62 -74
5 -16 9 -568 5 -705 -1 -15 -7 -23 -18 -23 -16 0 -253 116 -263 129 -3 3 -51
28 -106 55 -82 40 -108 48 -136 43 -35 -5 -282 -110 -305 -129 -7 -6 -13 -8
-13 -5 0 3 -32 -10 -71 -29 -40 -19 -85 -38 -102 -41 l-30 -6 6 39 c7 46 9 55
27 114 16 52 14 45 24 90 5 19 13 41 18 48 6 6 8 12 4 12 -9 0 93 272 107 286
4 4 7 16 7 26 0 10 5 18 10 18 6 0 10 6 10 13 0 8 14 41 30 75 17 34 30 67 30
72 0 6 5 10 10 10 6 0 10 8 10 19 0 10 6 24 14 30 8 7 17 23 20 36 4 14 11 25
16 25 6 0 10 4 10 9 0 6 19 40 42 76 39 63 43 67 72 62 17 -3 45 -11 61 -18z
m3660 -448 c22 -1 72 -1 110 -1 39 1 72 0 75 -1 3 -1 10 0 15 1 12 3 366 2
380 0 6 -2 15 -1 20 0 14 2 528 2 540 0 6 -1 15 -1 20 0 12 2 207 2 221 -1 5
-1 11 0 14 1 3 1 86 3 184 5 167 3 182 2 208 -16 15 -11 28 -29 28 -39 0 -10
3 -20 8 -22 6 -3 62 -164 68 -198 2 -8 7 -23 13 -35 12 -23 78 -285 86 -342 3
-21 8 -45 11 -52 3 -8 7 -35 10 -60 2 -26 7 -57 10 -71 7 -27 8 -36 18 -220 4
-69 9 -135 11 -147 2 -13 -1 -23 -6 -23 -6 0 -7 -6 -2 -14 11 -19 -3 -300 -22
-436 -2 -19 -7 -55 -10 -80 -8 -66 -14 -78 -38 -86 -18 -6 -175 -8 -374 -5
-49 1 -51 6 -58 141 -7 132 -13 145 -67 150 -48 5 -582 5 -659 1 -102 -6 -108
-15 -118 -173 -4 -59 -10 -110 -13 -114 -7 -6 -828 -7 -863 -1 -11 2 -21 9
-21 15 -1 7 -2 15 -3 20 -5 23 -1 1765 4 1782 4 11 11 18 16 15 5 -4 9 -3 9 2
0 7 38 8 175 4z m-3627 -583 c7 -7 12 -9 12 -6 0 4 26 -7 58 -25 31 -18 134
-70 227 -117 94 -47 172 -87 175 -90 10 -10 68 -42 180 -97 63 -32 118 -62
122 -68 4 -5 8 -6 8 -1 0 5 8 2 18 -7 9 -8 28 -20 42 -26 14 -6 40 -20 58 -31
17 -11 32 -17 32 -14 0 3 15 -5 33 -18 17 -13 34 -22 37 -22 10 3 80 -31 80
-38 0 -5 6 -8 13 -8 15 0 81 -32 102 -50 8 -6 20 -13 27 -14 18 -4 127 -58
163 -81 49 -32 55 -45 25 -60 -11 -6 -152 -77 -313 -159 l-293 -149 -49 22
c-28 12 -52 23 -55 23 -3 1 -37 21 -76 45 -39 24 -76 43 -82 43 -6 0 -12 3
-14 8 -1 4 -43 27 -93 52 -49 25 -92 48 -95 51 -3 4 -25 17 -50 29 -25 13 -56
30 -69 39 -13 8 -30 16 -38 17 -8 2 -23 10 -33 19 -9 8 -27 18 -40 20 -13 2
-30 11 -39 18 -29 25 -95 45 -117 37 -30 -11 -61 -59 -60 -92 1 -40 23 -60
137 -123 57 -32 127 -70 154 -86 28 -15 55 -28 60 -29 6 -1 21 -10 35 -20 14
-9 87 -50 163 -89 93 -49 137 -78 137 -89 0 -11 -22 -27 -61 -44 -34 -16 -65
-28 -70 -28 -5 0 -9 -4 -9 -9 0 -5 -10 -12 -23 -16 -12 -4 -24 -8 -27 -9 -18
-7 -206 -102 -210 -106 -3 -3 -46 -26 -95 -51 -102 -52 -125 -54 -188 -12 -23
15 -55 35 -72 43 -16 8 -39 23 -49 33 -11 9 -25 17 -32 17 -6 0 -23 9 -37 21
-15 11 -75 45 -134 75 -60 31 -123 71 -140 89 -30 31 -34 42 -43 129 -12 105
-19 237 -21 366 -1 115 14 409 21 418 1 1 3 7 4 13 1 11 46 48 59 49 4 0 19 8
34 17 14 10 35 19 47 20 11 2 25 8 30 13 6 6 18 10 28 10 10 0 18 5 18 10 0 5
3 9 8 8 4 -2 32 8 62 22 30 13 57 25 60 25 5 2 33 14 150 68 62 29 90 33 108
15z m4602 -1142 c0 -6 5 -5 11 1 6 6 23 8 42 3 33 -7 137 -4 145 5 3 3 11 0
19 -6 7 -6 13 -7 13 -3 0 5 24 8 53 8 28 -1 52 -3 52 -4 0 -1 11 -3 23 -4 30
-4 42 -22 42 -68 0 -29 -5 -38 -22 -44 -36 -11 -458 -8 -470 4 -5 5 -12 30
-14 54 -4 38 -1 46 16 54 27 12 90 12 90 0z m-3558 -396 c0 -351 0 -352 -23
-376 -12 -13 -25 -22 -27 -19 -3 3 -14 -2 -24 -12 -10 -9 -18 -13 -18 -10 0 3
-12 0 -26 -8 -31 -16 -54 -10 -55 14 -1 20 -1 675 0 679 1 1 2 5 3 10 9 35
140 101 162 82 4 -5 8 -166 8 -360z m-366 169 c4 -6 6 -162 6 -347 l-1 -336
-23 -17 c-12 -10 -25 -17 -28 -17 -3 1 -12 -1 -20 -4 -30 -11 -106 -32 -130
-35 -14 -2 -47 -10 -75 -18 -27 -7 -70 -17 -95 -20 -25 -4 -58 -9 -75 -12
-116 -20 -412 -15 -471 7 -17 7 -40 42 -81 127 -31 65 -58 123 -59 128 -1 6
-19 50 -39 100 -41 99 -76 205 -68 205 3 0 1 6 -4 13 -6 6 -14 26 -18 42 -5
17 -10 37 -12 45 -3 8 -7 30 -10 49 -5 31 -4 33 18 26 13 -4 64 -32 113 -61
49 -30 90 -54 92 -54 2 0 27 -15 56 -34 29 -18 84 -49 121 -69 99 -51 120 -48
287 44 14 7 27 14 30 14 3 1 38 18 77 38 40 21 76 38 80 39 5 1 14 8 21 15 7
7 22 13 33 13 10 0 19 4 19 9 0 5 16 15 35 22 19 7 35 17 35 23 0 5 3 6 7 3 3
-4 11 -3 17 2 18 15 130 70 143 71 6 0 15 -5 19 -11z m4891 -84 c8 -11 9 -23
4 -29 -5 -6 -10 -14 -10 -19 -2 -35 -27 -88 -45 -93 -27 -9 -2245 -9 -2272 0
-18 6 -21 13 -19 59 4 85 10 95 58 99 23 2 543 2 1156 2 1059 -1 1115 -2 1128
-19z m-2272 -669 c22 -6 25 -12 26 -49 0 -23 0 -372 1 -775 0 -665 -1 -734
-16 -757 -9 -14 -21 -23 -26 -20 -5 3 -18 2 -27 -3 -10 -6 -34 -12 -53 -15
-19 -3 -46 -8 -60 -11 -41 -10 -83 -17 -117 -21 -27 -2 -33 1 -39 24 -8 28
-10 39 -12 58 -3 21 -72 44 -152 50 -41 3 -77 7 -78 9 -2 1 -5 18 -5 36 -2 26
2 33 16 32 9 -1 17 1 17 5 0 6 51 10 200 14 96 3 110 6 126 27 16 21 10 98 -9
117 -9 10 -38 17 -74 20 -119 7 -151 11 -162 17 -6 4 -11 3 -11 -1 0 -10 -45
-9 -85 1 -17 4 -22 11 -18 25 4 16 18 20 76 26 40 4 86 7 104 7 18 -1 37 6 45
15 16 20 19 113 4 128 -21 20 -72 31 -144 33 -85 2 -92 5 -92 36 0 41 20 47
161 48 184 1 212 11 216 77 2 33 -20 90 -35 92 -4 0 -16 2 -26 4 -10 2 -82 6
-159 9 -140 6 -156 10 -157 44 0 20 49 33 132 34 101 1 118 15 114 93 -2 31
-6 58 -8 61 -10 10 -82 18 -210 23 -10 1 -20 12 -24 27 -12 47 7 54 169 56 81
2 147 7 147 11 0 5 4 6 10 2 5 -3 18 3 30 15 16 16 19 29 15 63 -3 23 -10 44
-15 45 -6 2 -10 10 -10 17 0 18 -59 28 -185 31 -60 1 -112 3 -115 4 -3 1 -13
2 -22 1 -15 -2 -18 7 -19 51 -3 131 -1 152 13 162 16 12 498 13 543 2z m775
-39 c13 -23 25 -46 26 -52 1 -5 9 -27 18 -47 9 -21 13 -38 10 -38 -4 0 -1 -6
5 -14 7 -8 9 -28 6 -46 -6 -32 -54 -134 -55 -115 0 5 -7 -1 -16 -13 -29 -42
-55 -25 -101 63 -49 94 -53 139 -20 207 23 48 69 98 90 98 7 0 23 -19 37 -43z
m-3232 -503 c15 -3 29 -9 30 -15 2 -5 9 -9 15 -9 22 0 58 -66 63 -117 5 -38 1
-61 -16 -100 -18 -43 -29 -54 -68 -71 -25 -11 -58 -19 -73 -17 -36 5 -95 44
-108 72 -17 37 -25 120 -12 127 6 4 9 11 6 16 -8 12 16 62 40 84 24 22 77 46
88 39 4 -2 20 -7 35 -9z m3252 -76 c0 -5 3 -7 8 -7 57 9 70 -16 67 -120 -2
-49 -6 -106 -9 -127 -3 -22 -8 -86 -11 -144 -10 -170 -18 -224 -33 -243 -19
-23 -111 -62 -122 -51 -5 5 -12 38 -14 74 -10 123 -16 195 -21 245 -13 122
-20 262 -16 327 1 19 29 37 69 44 15 3 27 6 28 7 6 6 54 1 54 -5z"/>
<path d="M3404 5661 c3 -4 -10 -5 -27 -4 -48 5 -68 -17 -73 -76 -3 -44 0 -53
22 -70 23 -18 41 -19 247 -19 245 1 246 2 254 64 5 33 -12 93 -26 95 -59 11
-403 20 -397 10z"/>
<path d="M3322 5353 c-27 -30 -24 -96 7 -126 20 -21 30 -22 199 -22 138 0 262
6 278 14 10 5 25 67 22 93 -6 62 -8 63 -258 64 -226 1 -227 1 -248 -23z"/>
<path d="M2308 4859 c-8 -4 -25 -9 -39 -11 -13 -2 -30 -7 -36 -11 -7 -5 -13
-6 -13 -3 0 3 -12 1 -27 -5 -31 -12 -62 -20 -80 -21 -7 -1 -13 -4 -13 -8 0 -4
-7 -7 -15 -8 -8 -1 -22 -3 -30 -4 -8 -1 -15 -5 -15 -10 0 -4 -3 -7 -7 -6 -10
2 -61 -18 -95 -38 -16 -8 -28 -12 -28 -8 0 3 -6 2 -13 -4 -7 -6 -57 -33 -112
-61 -135 -68 -160 -90 -159 -145 0 -49 18 -73 63 -86 25 -7 43 -1 117 41 48
27 93 49 101 49 8 0 11 5 8 10 -3 6 1 10 10 10 9 0 35 10 58 21 23 12 42 21
42 19 0 -2 22 7 50 19 27 12 56 23 65 24 8 1 21 6 28 10 6 5 12 6 12 2 0 -3 9
-1 21 5 11 6 28 13 37 15 9 1 37 9 62 16 53 15 46 13 90 23 19 5 41 13 48 18
6 6 12 7 12 2 0 -5 6 2 14 16 15 29 12 75 -6 97 -25 31 -117 50 -150 32z"/>
<path d="M2300 4558 c-19 -5 -44 -10 -55 -12 -11 -2 -27 -6 -35 -9 -8 -3 -39
-13 -69 -22 -29 -10 -97 -35 -150 -57 -53 -22 -102 -40 -108 -40 -7 -1 -13 -5
-13 -9 0 -3 -9 -9 -20 -12 -32 -8 -33 -9 -72 -33 -21 -13 -42 -24 -47 -24 -5
0 -11 -4 -13 -9 -1 -5 -9 -11 -17 -13 -18 -4 -66 -48 -79 -72 -6 -12 -7 -29
-2 -42 5 -12 7 -24 4 -26 -10 -11 46 -49 72 -50 17 0 79 24 144 57 147 74 267
125 274 118 3 -4 6 -2 6 4 0 6 15 14 33 18 49 12 49 11 99 28 26 9 60 19 75
22 15 3 38 8 49 10 39 9 92 34 96 47 3 7 4 33 3 57 -1 32 -8 48 -25 61 -25 19
-92 22 -150 8z"/>
<path d="M4610 4152 c-19 -20 -24 -110 -9 -139 l12 -22 794 0 c755 0 795 1
812 18 12 12 17 30 16 52 -2 19 -3 42 -4 52 0 9 -10 26 -21 37 -20 20 -32 20
-803 20 -713 -1 -783 -3 -797 -18z"/>
<path d="M4708 3825 c-4 -4 -26 -8 -49 -9 -54 -3 -69 -24 -68 -91 2 -52 20
-92 38 -81 5 4 12 2 15 -3 4 -6 259 -9 664 -7 701 3 906 7 917 18 14 13 10
152 -4 144 -5 -4 -11 -1 -13 6 -6 16 -63 22 -151 16 -26 -2 -47 0 -47 4 0 4
-6 5 -14 2 -21 -8 -106 -10 -106 -2 0 4 -12 3 -27 0 -16 -4 -41 -6 -58 -4 -42
4 -55 4 -92 0 -18 -2 -33 0 -33 5 0 4 -5 5 -11 2 -16 -11 -69 -12 -69 -2 0 4
-5 5 -11 2 -16 -11 -69 -12 -69 -2 0 4 -5 5 -12 1 -14 -9 -203 -8 -217 1 -6 3
-11 3 -11 -2 0 -9 -83 -8 -106 1 -8 3 -14 2 -14 -2 0 -8 -85 -6 -106 2 -8 3
-14 2 -14 -2 0 -8 -85 -6 -106 2 -8 3 -14 2 -14 -2 0 -4 -24 -6 -52 -4 -65 4
-75 4 -115 0 -18 -2 -34 0 -36 5 -1 4 -5 5 -9 2z"/>
<path d="M4705 3460 c-11 -4 -30 -6 -42 -4 -12 2 -32 0 -45 -5 -22 -8 -24 -16
-26 -72 -1 -35 3 -71 8 -79 7 -12 34 -15 124 -16 63 -1 119 -5 125 -9 6 -3 11
-3 11 2 0 9 441 9 465 -1 8 -3 15 -2 15 2 0 4 27 7 60 6 79 -1 93 15 93 109 0
52 -22 67 -96 63 -32 -1 -60 1 -63 6 -3 4 -15 4 -27 0 -12 -4 -37 -6 -54 -4
-45 3 -51 3 -106 -1 -27 -1 -50 0 -53 5 -3 4 -15 4 -27 0 -12 -4 -37 -6 -54
-4 -45 3 -51 3 -106 -1 -27 -1 -50 0 -53 5 -3 4 -15 4 -27 0 -25 -8 -79 -8
-93 0 -5 3 -18 2 -29 -2z"/>
<path d="M1558 6134 c-4 -3 -12 -6 -20 -8 -16 -2 -111 -66 -155 -103 -46 -40
-48 -90 -7 -128 31 -29 52 -31 97 -10 76 35 184 125 189 158 4 25 -11 67 -24
67 -5 0 -16 7 -24 15 -15 15 -46 20 -56 9z"/>
<path d="M3447 3910 c-20 -10 -37 -16 -37 -13 0 2 -8 -3 -17 -12 -63 -57 -93
-92 -104 -117 -6 -15 -16 -28 -21 -28 -5 0 -6 -5 -3 -10 3 -6 0 -12 -7 -15 -8
-3 -14 -15 -15 -26 -1 -12 -10 -30 -20 -41 -10 -11 -17 -23 -17 -27 2 -9 -30
-75 -39 -82 -5 -3 -9 -12 -10 -20 -2 -8 -7 -21 -12 -29 -5 -8 -10 -17 -10 -20
-1 -3 -81 -165 -180 -360 -98 -195 -177 -357 -176 -359 2 -2 -2 -7 -7 -10 -8
-5 -65 -117 -67 -131 -1 -5 -9 -21 -47 -89 -23 -41 -181 -354 -183 -361 -1 -6
-85 -171 -131 -258 -20 -37 -40 -70 -46 -73 -5 -3 -9 -9 -7 -13 1 -4 -26 -65
-60 -135 -34 -71 -63 -138 -66 -150 -2 -11 -7 -26 -11 -32 -4 -6 -9 -55 -11
-108 -2 -53 -6 -130 -9 -171 -3 -41 -7 -106 -9 -143 -2 -38 -6 -71 -8 -74 -3
-2 -1 -18 3 -34 5 -16 5 -31 1 -33 -14 -9 -12 -106 3 -134 13 -26 37 -43 78
-55 16 -6 81 32 129 75 15 12 42 35 60 50 35 27 63 51 112 94 15 13 27 22 27
19 0 -3 8 3 18 13 11 9 30 25 43 36 82 65 189 162 189 173 0 3 10 14 22 24 11
11 17 19 12 19 -5 0 -4 4 1 8 6 4 16 18 23 32 6 14 16 32 22 40 5 8 15 26 20
40 6 14 24 50 40 80 17 30 33 64 36 75 4 11 13 27 20 36 8 9 16 25 18 36 2 11
16 36 30 57 14 21 24 42 21 46 -3 5 -2 10 2 12 10 4 199 382 195 387 -2 2 0 7
5 10 12 8 79 144 75 154 -1 4 2 7 8 7 5 0 10 7 10 15 0 8 5 15 12 15 6 0 9 3
6 6 -5 4 78 175 157 324 11 19 20 37 20 40 0 3 9 21 20 40 11 19 20 37 20 40
1 3 19 39 40 80 21 41 39 77 40 80 1 3 28 57 60 120 32 63 59 117 60 120 1 3
19 39 40 80 21 41 39 77 40 80 0 3 9 21 20 40 11 19 19 38 20 42 0 4 6 13 13
20 6 6 12 15 12 19 0 4 4 18 9 31 5 13 8 26 7 29 0 3 4 12 10 20 18 23 8 119
-18 177 -13 29 -27 49 -31 46 -4 -4 -7 -3 -7 3 0 12 -113 93 -129 93 -6 0 -11
3 -11 8 0 6 -62 39 -90 47 -3 1 -23 10 -45 19 -55 25 -124 27 -168 6z m141
-197 c37 -14 69 -29 72 -32 3 -3 22 -15 44 -26 21 -11 46 -30 57 -43 18 -23
18 -25 -3 -80 -11 -31 -25 -63 -31 -69 -5 -7 -6 -13 -2 -13 5 0 1 -8 -7 -17
-8 -10 -18 -26 -21 -36 -6 -15 -13 -17 -39 -12 -18 4 -35 10 -38 14 -3 3 -56
31 -117 61 -62 30 -115 62 -118 70 -9 21 75 187 100 199 29 14 30 14 103 -16z
m-245 -380 c18 -9 38 -18 45 -19 8 -1 21 -9 30 -17 10 -8 28 -18 42 -22 14 -4
49 -21 78 -38 59 -35 59 -34 9 -132 -17 -33 -32 -62 -32 -65 -5 -18 -20 -46
-27 -51 -5 -3 -10 -12 -12 -20 -2 -13 -43 -97 -80 -164 -9 -16 -16 -35 -16
-42 0 -6 -3 -13 -7 -15 -5 -1 -21 -32 -38 -68 -16 -36 -35 -72 -43 -82 -7 -9
-15 -22 -16 -30 -1 -7 -25 -58 -53 -113 -28 -55 -83 -165 -122 -245 -39 -80
-78 -156 -86 -170 -8 -14 -87 -169 -176 -345 -201 -397 -218 -423 -264 -405
-13 5 -26 6 -29 3 -3 -4 -6 -1 -6 5 0 7 -6 12 -12 12 -16 0 -98 41 -116 58 -7
6 -16 12 -20 12 -4 0 -20 12 -37 26 l-29 25 17 47 c10 26 19 52 20 57 1 6 10
21 20 35 9 13 17 32 17 42 0 9 4 19 9 22 11 7 71 130 71 145 0 6 4 11 8 11 6
0 26 39 36 70 1 3 12 20 23 39 12 19 20 38 17 43 -3 4 -1 8 3 8 9 0 37 59 34
73 0 4 4 7 9 7 6 0 10 7 10 15 0 8 4 15 8 15 4 0 8 10 9 22 1 11 6 24 10 27 9
7 30 51 31 65 0 5 4 12 9 15 4 3 17 24 28 46 11 22 28 52 38 68 10 15 16 27
13 27 -3 0 3 16 14 35 26 46 74 139 75 145 1 3 19 39 40 80 21 41 39 77 40 80
0 3 9 21 20 40 11 19 20 37 20 40 1 3 19 39 40 80 21 41 39 77 40 80 0 3 9 21
20 40 11 19 20 37 20 40 1 3 15 33 33 67 18 35 32 66 33 70 0 5 8 16 17 27 9
10 16 20 15 22 -2 2 16 42 39 89 46 92 55 98 111 68z m-975 -2152 c9 -5 25
-12 35 -15 9 -3 17 -12 17 -21 0 -22 -61 -79 -89 -83 -23 -4 -23 -2 -18 51 7
77 16 88 55 68z"/>
</g>
</svg>
